<svg t="1667908874971" class="icon" viewBox="0 0 1024 1024" version="1.1" xmlns="http://www.w3.org/2000/svg" p-id="1386" width="200" height="200"><path d="M512.268258 128.889756c-211.24802 0-383.110244 171.8612-383.110244 383.110244 0 211.24802 171.8612 383.110244 383.110244 383.110244s383.110244-171.8612 383.110244-383.110244c0-211.24802-171.862223-383.110244-383.110244-383.110244z m0 730.303614c-191.443006 0-347.19337-155.750364-347.19337-347.19337s155.750364-347.19337 347.19337-347.19337 347.19337 155.750364 347.19337 347.19337-155.751388 347.19337-347.19337 347.19337z m-1.196922-196.933079c-16.174316 0-29.332267 13.15795-29.332267 29.332267 0 16.174316 13.15795 29.332267 29.332267 29.332266 16.174316 0 29.332267-13.15795 29.332267-29.332266-0.001024-16.174316-13.158974-29.332267-29.332267-29.332267z m129.612619-239.481658c0 63.353928-44.259491 116.25194-106.716495 127.53618v52.668661c0 13.223479-10.325884 23.944582-23.549363 23.944582s-23.549362-10.721103-23.549362-23.944582v-99.624042h25.399523c45.022286 0 81.649735-36.083767 81.649735-81.227895 0-45.143104-36.786152-81.548371-82.005023-81.54837-45.057098 0-81.712192 36.827107-81.712192 81.898539 0 13.223479-10.721103 24.023421-23.944583 24.023421s-23.944582-10.680148-23.944582-23.903626c0-71.475387 57.578191-129.606476 129.040268-129.606476 71.622826 0.001024 129.332075 58.23143 129.332074 129.783608z" fill="#272636" p-id="1387"></path></svg>