<svg t="1667910215032" class="icon" viewBox="0 0 1024 1024" version="1.1" xmlns="http://www.w3.org/2000/svg" p-id="1202" width="200" height="200"><path d="M512.268258 131.008175c-210.079767 0-380.991825 170.911034-380.991825 380.991825 0 210.079767 170.911034 380.991825 380.991825 380.991825s380.991825-170.911034 380.991825-380.991825c0-210.080791-170.912058-380.991825-380.991825-380.991825z m0 726.26541c-190.384309 0-345.273585-154.889276-345.273585-345.273585 0-190.384309 154.889276-345.273585 345.273585-345.273585S857.541843 321.615691 857.541843 512c0 190.384309-154.889276 345.273585-345.273585 345.273585z m-21.303982-259.554929V331.024173c0-9.864111 8.053882-17.858608 17.917993-17.858608s17.917993 7.994497 17.917993 17.858608v266.694483c0 9.864111-8.053882 17.858608-17.917993 17.858607s-17.917993-7.994497-17.917993-17.858607z m20.113203 63.711264c-16.085238 0-29.169469 13.085254-29.169469 29.169469 0 16.084215 13.085254 29.169469 29.169469 29.169469 16.085238 0 29.169469-13.085254 29.169469-29.169469 0-16.085238-13.085254-29.169469-29.169469-29.169469z" fill="#272636" p-id="1203"></path></svg>